# xmcd
#
# Track frame offsets:
#	150
#	12347
#	23541
#	38076
#	54247
#	66728
#	83473
#	98061
#	116250
#	137477
#	155178
#	174836
#	186712
#
# Disc length: 2723 seconds
#
# Revision: 1
# Processed by: cddbd v1.5.2PL0 Copyright (c) Steve Scherf et al.
# Submitted via: audiograbber 1.83.01
#
DISCID=a00aa10d
DTITLE=Bob Wayne - Outlaw Carnie
DYEAR=2011
DGENRE=Country
TTITLE0=Road Bound
TTITLE1=Estacata
TTITLE2=Mack
TTITLE3=Ghost Town
TTITLE4=Reptile
TTITLE5=Love Songs Suck
TTITLE6=Everything's Legal In Alabama
TTITLE7=Gold
TTITLE8=Blood To Dust
TTITLE9=Driven By Demons
TTITLE10=Work Of The Devil
TTITLE11=Chatterbox
TTITLE12=2012
EXTD=
EXTT0=
EXTT1=
EXTT2=
EXTT3=
EXTT4=
EXTT5=
EXTT6=
EXTT7=
EXTT8=
EXTT9=
EXTT10=
EXTT11=
EXTT12=
PLAYORDER=
